<?xml version="1.0" encoding="UTF-8" standalone="no"?>
<svg
   version="1.1"
   width="59.099998"
   height="82.399994"
   viewBox="0 0 59.099998 82.399994"
   xml:space="preserve"
   id="svg10"
   sodipodi:docname="blueprint_logo.svg"
   inkscape:version="1.2.2 (b0a8486541, 2022-12-01)"
   xmlns:inkscape="http://www.inkscape.org/namespaces/inkscape"
   xmlns:sodipodi="http://sodipodi.sourceforge.net/DTD/sodipodi-0.dtd"
   xmlns="http://www.w3.org/2000/svg"
   xmlns:svg="http://www.w3.org/2000/svg"><sodipodi:namedview
   id="namedview12"
   pagecolor="#ffffff"
   bordercolor="#666666"
   borderopacity="1.0"
   inkscape:showpageshadow="2"
   inkscape:pageopacity="0.0"
   inkscape:pagecheckerboard="0"
   inkscape:deskcolor="#d1d1d1"
   showgrid="false"
   inkscape:zoom="1.5479167"
   inkscape:cx="319.46164"
   inkscape:cy="239.67699"
   inkscape:window-width="1500"
   inkscape:window-height="1349"
   inkscape:window-x="2585"
   inkscape:window-y="47"
   inkscape:window-maximized="1"
   inkscape:current-layer="svg10" />
<desc
   id="desc2">Created with Fabric.js 3.6.6</desc>
<defs
   id="defs4">
</defs>
<g
   transform="translate(29.55,41.199997)"
   id="g8">
<path
   style="opacity:1;fill:#f8f2ef;fill-rule:nonzero;stroke:none;stroke-width:1;stroke-linecap:butt;stroke-linejoin:miter;stroke-miterlimit:4;stroke-dasharray:none;stroke-dashoffset:0"
   transform="translate(-29.8,-42.18)"
   d="m 58.85,45.78 -8,-8 c -0.3,-0.3 -0.7,-0.4 -1.1,-0.4 h -4.4 l 5.5,-5.5 c 0.3,-0.3 0.4,-0.7 0.4,-1.1 v -20.3 c 0,-0.4 -0.2,-0.7 -0.4,-1.1 l -8,-8 c -0.3,-0.2 -0.6,-0.399997 -1,-0.399997 h -40 c -0.4,0 -0.8,0.199997 -1.1,0.399997 -0.3,0.3 -0.400002,0.7 -0.400002,1.1 v 24 c 0.1,0.8 0.700002,1.4 1.500002,1.5 h 16 c 0.8,-0.1 1.4,-0.7 1.5,-1.5 V 3.98 h 21.9 l 7.1,7.1 v 19.1 l -7.1,7.1 H 1.75 c -0.8,0.1 -1.4,0.7 -1.5,1.5 v 43.1 c 0.1,0.8 0.7,1.4 1.5,1.5 h 44 c 0.4,0 0.7,-0.2 1.1,-0.4 l 12.1,-12.6 c 0.2,-0.3 0.4,-0.6 0.4,-1 v -22.7 c 0,-0.3 -0.2,-0.7 -0.5,-0.9 z m -2.5,23.3 -10.8,11.3 v -11.3 z m 0,-21.8 v 19 h -12.1 c -0.8,0.1 -1.4,0.7 -1.5,1.5 v 12.5 h -23.4 v -40.1 h 29.9 z m -40,-39.9 v 14.1 l -4.6,-7.1 z m -6.5,9.7 5.2,7.9 H 4.65 Z m 0,-5.5 -5,-7.6 h 10.2 z m -1.8,2.7 -4.8,7.2 V 6.98 Z m -4.7,31.6 v -5.6 h 13 v 5.6 z m 0,8.6 v -5.6 h 13 v 5.6 z m 0,8.7 v -5.6 h 13 v 5.6 z m 0,8.6 v -5.6 h 13 v 5.6 z m 13,3.1 v 5.6 h -13 v -5.6 z"
   stroke-linecap="round"
   id="path6" />
</g>
</svg>
