<?xml version="1.0" encoding="UTF-8" standalone="no"?>
<svg
   role="img"
   width="32"
   height="32"
   viewBox="0 0 32 32"
   fill="none"
   version="1.1"
   id="svg72"
   sodipodi:docname="cashapp_logo_sm.svg"
   inkscape:version="1.2.2 (b0a8486541, 2022-12-01)"
   xmlns:inkscape="http://www.inkscape.org/namespaces/inkscape"
   xmlns:sodipodi="http://sodipodi.sourceforge.net/DTD/sodipodi-0.dtd"
   xmlns="http://www.w3.org/2000/svg"
   xmlns:svg="http://www.w3.org/2000/svg">
  <defs
     id="defs76" />
  <sodipodi:namedview
     id="namedview74"
     pagecolor="#ffffff"
     bordercolor="#666666"
     borderopacity="1.0"
     inkscape:showpageshadow="2"
     inkscape:pageopacity="0.0"
     inkscape:pagecheckerboard="0"
     inkscape:deskcolor="#d1d1d1"
     showgrid="false"
     inkscape:zoom="8.8648649"
     inkscape:cx="51.495427"
     inkscape:cy="16.074695"
     inkscape:window-width="2560"
     inkscape:window-height="1422"
     inkscape:window-x="0"
     inkscape:window-y="0"
     inkscape:window-maximized="1"
     inkscape:current-layer="svg72" />
  <path
     fill-rule="evenodd"
     clip-rule="evenodd"
     d="M 27.3911,0.546667 C 25.6618,0 24.056,0 20.8436,0 H 11.1569 C 7.944,0 6.33778,0 4.60889,0.546667 2.72089,1.23378 1.23378,2.72089 0.546667,4.60889 0,6.33778 0,7.94444 0,11.1569 v 9.6862 c 0,3.2129 0,4.8187 0.546667,6.548 0.687113,1.888 2.174223,3.3751 4.062223,4.0622 C 6.33778,32 7.944,32 11.1569,32 h 9.6867 c 3.2124,0 4.8182,0 6.5475,-0.5467 1.888,-0.6871 3.3751,-2.1742 4.0622,-4.0622 C 32,25.6618 32,24.056 32,20.8431 V 11.1569 C 32,7.94444 32,6.33778 31.4533,4.60889 30.7662,2.72089 29.2791,1.23378 27.3911,0.546667 Z M 20.6565,12.2971 c -0.9689,-0.8599 -2.4518,-1.4864 -3.9989,-1.4864 -1.2108,0 -2.4225,0.4333 -2.4225,1.5289 0,1.038 1.1062,1.4368 2.456,1.9235 0.1124,0.0405 0.2265,0.0817 0.3418,0.1238 2.6245,0.8941 4.787,1.9901 4.787,4.5854 0,2.8209 -2.17,4.7481 -5.7156,4.9669 l -0.3221,1.5334 c -0.0585,0.2813 -0.3079,0.482 -0.595,0.4798 l -2.2311,-0.0168 c -0.3828,-0.0032 -0.6659,-0.3558 -0.5866,-0.7297 l 0.3398,-1.595 C 11.3137,23.2308 10.0909,22.5521 9.12512,21.6146 8.88101,21.378 8.8788,20.9855 9.12114,20.7467 l 1.23876,-1.2219 c 0.2348,-0.2317 0.6105,-0.2299 0.8453,0.0018 1.1971,1.1802 2.7397,1.6662 4.2124,1.6662 1.6153,0 2.7109,-0.6632 2.7109,-1.7881 0,-0.9911 -0.8967,-1.322 -2.6052,-1.9525 -0.18,-0.0664 -0.369,-0.1362 -0.5669,-0.2104 -2.1917,-0.7784 -4.2682,-1.9032 -4.2682,-4.5278 0,-3.03169 2.5098,-4.50921 5.471,-4.65719 l 0.3256,-1.53113 c 0.0594,-0.27867 0.3057,-0.47804 0.5906,-0.47804 h 2.2276 c 0.3837,0 0.6694,0.35266 0.591,0.72791 l -0.3615,1.72164 c 1.2782,0.41867 2.3166,1.07259 3.0902,1.73761 0.2627,0.2255 0.2716,0.6295 0.0283,0.8763 l -1.1528,1.1692 c -0.2299,0.233 -0.5967,0.2343 -0.8417,0.0168 z"
     fill="#ffffff"
     id="path70" />
</svg>
