<?xml version="1.0" encoding="UTF-8" standalone="no"?>
<svg
   version="1.1"
   width="23.101"
   height="32"
   viewBox="0 0 23.101 32"
   xml:space="preserve"
   id="svg10"
   sodipodi:docname="blueprint_logo.svg"
   inkscape:version="1.2.2 (b0a8486541, 2022-12-01)"
   xmlns:inkscape="http://www.inkscape.org/namespaces/inkscape"
   xmlns:sodipodi="http://sodipodi.sourceforge.net/DTD/sodipodi-0.dtd"
   xmlns="http://www.w3.org/2000/svg"
   xmlns:svg="http://www.w3.org/2000/svg"><sodipodi:namedview
   id="namedview12"
   pagecolor="#ffffff"
   bordercolor="#666666"
   borderopacity="1.0"
   inkscape:showpageshadow="2"
   inkscape:pageopacity="0.0"
   inkscape:pagecheckerboard="0"
   inkscape:deskcolor="#d1d1d1"
   showgrid="false"
   inkscape:zoom="1.5479167"
   inkscape:cx="290.3903"
   inkscape:cy="199.30013"
   inkscape:window-width="2560"
   inkscape:window-height="1422"
   inkscape:window-x="0"
   inkscape:window-y="0"
   inkscape:window-maximized="1"
   inkscape:current-layer="svg10" />
<desc
   id="desc2">Created with Fabric.js 3.6.6</desc>
<defs
   id="defs4">
</defs>
<g
   transform="translate(0.001,10e-4)"
   id="g8"
   style="fill:#ffffff">
<path
   d="m 21.215,21.51 c -1.238,1.473 -3.713,4.479 -8.663,4.479 -3.182,0 -5.657,-1.355 -7.602,-2.888 l 0.059,-2.18 c 2.004,-0.825 4.066,-2.063 6.365,-3.713 2.824,-2.116 5.283,-4.481 7.424,-7.114 l 0.06,-0.076 -2.004,-1.414 c -2.048,2.466 -4.31,4.635 -6.795,6.527 L 9.958,15.204 C 8.556,16.266 6.972,17.246 5.299,18.073 L 5.126,18.15 C 5.421,10.96 5.833,3.476 6.187,0.235 L 3.712,-0.001 C 3.358,3.417 2.887,11.609 2.592,19.211 l -1.945,0.53 -0.648,2.004 c 0.589,0.648 1.414,1.591 2.416,2.475 l -0.118,7.779 h 2.475 l 0.059,-5.834 c 2.063,1.355 4.597,2.357 7.661,2.357 6.188,0 9.37,-3.889 10.549,-5.363 L 23.1,23.1 21.214,21.509 Z"
   id="path4789"
   style="fill:#ffffff" />
</g>
</svg>
